<svg xmlns="http://www.w3.org/2000/svg" width="60" height="60" viewBox="0 0 60 60">
    <g fill="#999" fill-rule="nonzero">
        <path d="M51.632 11.748c.684.498.995 1.37.746 2.242-.186.748-.621 1.433-.932 1.994-.435.747-1.057 1.432-1.927 2.18-.995.872-2.051 1.744-3.046 2.616l-1.368 1.122c-.31.249-.435.498-.373.934.125.872.25 1.807.373 2.679l1.492 10.901c.125.748.062 1.37-.062 1.932-.249.934-.87 1.62-1.865 2.118-.186.062-.31.124-.497.186a1.87 1.87 0 0 1-.746.187c-.622 0-1.119-.373-1.43-1.059-.186-.436-.373-.872-.497-1.308l-2.797-7.288c-.249-.748-.684-1.37-1.12-2.118l-.186-.312-1.367 1.06c-1.492 1.12-2.984 2.304-4.414 3.425l.373 1.495.125.561c.186.748.186 1.433-.063 2.056-.31.685-.808 1.246-1.554 1.495-.621.25-1.18-.125-1.367-.25a1.824 1.824 0 0 1-.622-.56c-1.492-1.869-2.922-3.8-4.413-5.669l-.933-1.183c-.124-.125-.248-.312-.373-.499-.497-.685-.435-1.308.125-1.869l.87-.872c.56-.498 1.305-.56 1.989-.249.56.25 1.119.56 1.678.81l.622.311c.062 0 .124.063.186.063.436-.374.809-.81 1.244-1.184l4.102-3.925c-.124-.186-.248-.311-.373-.498-.559-.685-1.243-1.183-2.113-1.744-2.176-1.433-4.29-2.928-6.403-4.423a4.536 4.536 0 0 1-.684-.56c-.621-.561-.683-1.247-.31-1.994a7.48 7.48 0 0 1 1.616-1.807c.373-.311.994-.56 1.865-.311.435.124.87.249 1.18.374l11.625 4.36c.249.063.435.125.684.187.31.062.622-.062.932-.311.311-.312.622-.561.933-.873l1.492-1.308a87.428 87.428 0 0 1 2.797-2.242c.87-.686 1.927-1.122 3.108-1.309.622 0 1.181.125 1.678.437zm-1.491.872a5.443 5.443 0 0 0-2.55 1.059 49.79 49.79 0 0 0-2.734 2.242c-.498.436-.995.872-1.43 1.309-.31.311-.622.56-.932.872-.56.498-1.244.685-1.927.56a4.571 4.571 0 0 1-.87-.249l-11.625-4.36c-.31-.125-.684-.25-1.119-.374-.435-.125-.622 0-.746.062-.56.436-.994.934-1.367 1.495-.125.187-.125.25.062.374.186.187.373.311.56.436 2.113 1.495 4.288 2.928 6.402 4.423.87.56 1.678 1.183 2.362 1.993.187.25.373.499.497.686.062.124.125.186.187.311l.31.436-.497.498-4.351 4.112c-.497.436-.995.934-1.43 1.37-.31.25-.621.312-.994.125l-.373-.187-.622-.311c-.56-.25-1.057-.561-1.616-.81-.249-.125-.435-.062-.684.062-.31.25-.56.498-.808.748l-.124.124s0 .063.062.125c.124.124.186.249.31.436l.87 1.37c1.493 1.87 2.922 3.8 4.414 5.67.063.124.187.186.311.248.187.125.311.125.311.125.435-.125.684-.374.87-.748.125-.373.187-.81.062-1.308l-.124-.56c-.124-.561-.31-1.122-.435-1.682-.062-.187-.062-.623.31-.935a296.333 296.333 0 0 0 4.6-3.55l1.803-1.371c.063 0 .063-.062.125-.125l.56-.373.559.872.31.56c.436.748.87 1.495 1.182 2.305l2.735 7.351c.124.436.31.81.497 1.246.124.311.249.374.622.25.124-.063.31-.125.435-.188.684-.311 1.057-.747 1.18-1.308.125-.374.125-.81.063-1.433l-1.492-10.901c-.124-.872-.248-1.807-.373-2.679-.124-.872.187-1.62.87-2.118l1.306-1.121c.994-.873 2.051-1.745 3.046-2.617.746-.623 1.243-1.246 1.678-1.869.311-.56.684-1.059.808-1.682.125-.373 0-.747-.248-.934-.249-.062-.498-.125-.808-.062zM7.932 48.128a.565.565 0 0 1-.497-.25c-.186-.248-.186-.685.124-.871L22.914 35.17c.248-.186.683-.124.87.125.186.25.186.685-.125.872L8.243 47.941a.342.342 0 0 1-.31.187zM25.835 38.223c.187.25.187.685-.124.872l-9.449 7.226c-.124.063-.248.125-.373.125a.565.565 0 0 1-.497-.25c-.187-.248-.187-.685.124-.871l9.449-7.227c.249-.187.621-.124.87.125zM14.77 46.633c.187.249.187.685-.124.872l-1.554 1.184c-.124.062-.249.124-.373.124a.565.565 0 0 1-.497-.25c-.187-.248-.187-.684.124-.871l1.554-1.184c.31-.187.684-.124.87.125zM10.73 41.836a.565.565 0 0 1-.498-.25c-.186-.248-.186-.684.125-.871l1.554-1.184c.248-.187.684-.124.87.125.187.249.187.685-.124.872l-1.554 1.183c-.125.125-.249.125-.373.125zM13.838 39.469a.565.565 0 0 1-.497-.25c-.187-.249-.187-.685.124-.871l7.397-5.607c.249-.187.684-.125.87.125.187.249.187.685-.124.872l-7.397 5.606c-.125.063-.249.125-.373.125z"/>
    </g>
</svg>
