<svg xmlns="http://www.w3.org/2000/svg" width="60" height="60" viewBox="0 0 60 60">
    <g fill="none" fill-rule="evenodd">
        <path fill="#333" fill-rule="nonzero" d="M30.461 53a.977.977 0 0 1-.633-.234C29.181 52.214 14 39.043 14 23.292 14 14.308 21.384 7 30.461 7c9.077 0 16.462 7.308 16.462 16.292 0 15.75-15.182 28.922-15.828 29.474a.977.977 0 0 1-.634.234zm0-44.083c-8.01 0-14.524 6.447-14.524 14.375 0 13.113 11.65 24.774 14.524 27.45 2.872-2.677 14.525-14.352 14.525-27.45 0-7.928-6.515-14.375-14.525-14.375z"/>
        <g stroke="#F51556" stroke-linecap="round" stroke-width="1.38" transform="translate(27.014 14.82)">
            <path d="M.045 15.93V8.977c0-1.518 1.249-2.749 2.789-2.749h1.091c1.54 0 2.789 1.23 2.789 2.749v6.87M1.729 16.57v10.312M4.905 16.57v10.312"/>
            <ellipse cx="3.378" cy="2.405" rx="2.294" ry="2.261"/>
        </g>
    </g>
</svg>
