<svg xmlns="http://www.w3.org/2000/svg" width="24" height="24" viewBox="0 0 24 24">
    <g fill="#2FD99B" fill-rule="nonzero" opacity=".85" transform="translate(2 3)">
        <path d="M18.423 5.993H16.97c-.036 0-.07.009-.107.012-.57-3.363-3.409-5.927-6.818-5.927-3.41 0-6.25 2.565-6.82 5.928-.041-.003-.081-.013-.124-.013H1.648c-.8 0-1.45.672-1.45 1.501v3.034c0 .83.65 1.501 1.45 1.501h1.453l.019-.002v.193c0 2.276 1.722 4.14 3.887 4.28 0 .828.65 1.5 1.45 1.5h2.932c.801 0 1.45-.672 1.45-1.501v-1.503c0-.83-.649-1.501-1.45-1.501H8.458c-.801 0-1.45.672-1.45 1.5v.003c-1.366-.136-2.438-1.33-2.438-2.778V7.245c0-3.125 2.456-5.666 5.475-5.666 3.018 0 5.474 2.542 5.474 5.666v3.001h.001v.282c0 .83.65 1.501 1.45 1.501h1.453c.8 0 1.45-.672 1.45-1.5V7.493c0-.829-.65-1.5-1.45-1.5zM3.101 10.528H1.65V7.494H3.1v3.034zm5.357 4.468h2.931v1.503H8.458V14.996zm9.965-4.468H16.97V7.494h1.453v3.034z"/>
        <ellipse cx="12.222" cy="8.646" rx="1.024" ry="1.06"/>
        <ellipse cx="8.048" cy="8.646" rx="1.024" ry="1.06"/>
    </g>
</svg>
